# xmcd
#
# Track frame offsets: 
#        150
#        8330
#        16462
#        27654
#        37584
#        49187
#        60935
#        69749
#        83654
#        92800
#        102306
#        110080
#        122165
#        129292
#        139487
#        151281
#        155268
#        166297
#        176328
#        188512
#        202071
#        216391
#        227366
#
# Disc length: 3137 seconds
#
# Revision: 0
# Processed by: cddbd v1.5.2PL0 Copyright (c) Steve Scherf et al.
# Submitted via: ExactAudioCopyFreeDBPlugin 1.0
#
DISCID=2a0c3f17
DTITLE=Johnny Cash - The Original Sun Albums 1957 - 1964 CD8
DYEAR=2017
DGENRE=Country
TTITLE0=Wide Open Road (First Recording)
TTITLE1=You're My Baby (little Woolly Booger)
TTITLE2=My Treasure (False start and take 1)
TTITLE3=Hey, Porter (take 1)
TTITLE4=Folsom Prison Blues (take 2)
TTITLE5=Wide Open Road (un-overdubbed re-recording take 3)
TTITLE6=My Two Timin' Woman (un-overdubbed take 2)
TTITLE7=Cry! Cry! Cry! (take 1 extended version)
TTITLE8=I Couldn't Keep From Crying
TTITLE9=New Mexico (un-overdubbed take 1)
TTITLE10=Rock And Roll Ruby (demo)
TTITLE11=I Walk The Line (take 1)
TTITLE12=Brakeman's Blues (incomplete)
TTITLE13=Get Rhythm (take 3 microphone test)
TTITLE14=Train Of Love (re-recording)
TTITLE15=One More Ride (incomplete)
TTITLE16=I Love You Because (un-overdubbed take 1)
TTITLE17=Goodbye, Little Darlin' (enhanched stereo version)
TTITLE18=Don't Make Me Go (take 5)
TTITLE19=Home Of The Blues (un-overdubbed take 2 plus false start)
TTITLE20=Give My Love To Rose (un-overdubbed take 3 plus false start)
TTITLE21=Belshazzar (un-overdubbed take 2)
TTITLE22=Country Boy (demo first recording)
EXTD=
EXTT0=
EXTT1=
EXTT2=
EXTT3=
EXTT4=
EXTT5=
EXTT6=
EXTT7=
EXTT8=
EXTT9=
EXTT10=
EXTT11=
EXTT12=
EXTT13=
EXTT14=
EXTT15=
EXTT16=
EXTT17=
EXTT18=
EXTT19=
EXTT20=
EXTT21=
EXTT22=
PLAYORDER=
